<?xml version="1.0" encoding="UTF-8" standalone="no"?>
<!DOCTYPE svg PUBLIC "-//W3C//DTD SVG 1.1//EN"
 "http://www.w3.org/Graphics/SVG/1.1/DTD/svg11.dtd">
<!-- Generated by graphviz version 2.44.1 (0)
 -->
<!-- Pages: 1 -->
<svg width="458pt" height="332pt"
 viewBox="0.00 0.00 458.00 332.00" xmlns="http://www.w3.org/2000/svg" xmlns:xlink="http://www.w3.org/1999/xlink">
<g id="graph0" class="graph" transform="scale(1 1) rotate(0) translate(4 328)">
<polygon fill="white" stroke="transparent" points="-4,4 -4,-328 454,-328 454,4 -4,4"/>
<!-- s_{0} -->
<g id="node1" class="node">
<title>s_{0}</title>
<ellipse fill="#000000" stroke="black" cx="224.5" cy="-306" rx="37.89" ry="18"/>
<text text-anchor="middle" x="224.5" y="-302.3" font-family="Times,serif" font-size="14.00">s_{0}</text>
</g>
<!-- s_{1, 0} -->
<g id="node2" class="node">
<title>s_{1, 0}</title>
<ellipse fill="#ffffff" stroke="black" cx="283.5" cy="-234" rx="49.5" ry="18"/>
<text text-anchor="middle" x="283.5" y="-230.3" font-family="Times,serif" font-size="14.00">s_{1, 0}</text>
</g>
<!-- s_{0}&#45;&gt;s_{1, 0} -->
<g id="edge1" class="edge">
<title>s_{0}&#45;&gt;s_{1, 0}</title>
<path fill="none" stroke="black" d="M237.88,-289.12C245.32,-280.29 254.73,-269.13 263.07,-259.24"/>
<polygon fill="black" stroke="black" points="265.99,-261.21 269.75,-251.31 260.63,-256.7 265.99,-261.21"/>
</g>
<!-- s_{1, 1} -->
<g id="node3" class="node">
<title>s_{1, 1}</title>
<ellipse fill="#ffffff" stroke="black" cx="49.5" cy="-234" rx="49.5" ry="18"/>
<text text-anchor="middle" x="49.5" y="-230.3" font-family="Times,serif" font-size="14.00">s_{1, 1}</text>
</g>
<!-- s_{0}&#45;&gt;s_{1, 1} -->
<g id="edge2" class="edge">
<title>s_{0}&#45;&gt;s_{1, 1}</title>
<path fill="none" stroke="black" d="M196.38,-293.75C167.92,-282.37 123.6,-264.64 91.08,-251.63"/>
<polygon fill="black" stroke="black" points="91.99,-248.22 81.4,-247.76 89.39,-254.72 91.99,-248.22"/>
</g>
<!-- s_{1, 2} -->
<g id="node4" class="node">
<title>s_{1, 2}</title>
<ellipse fill="#ffffff" stroke="black" cx="166.5" cy="-234" rx="49.5" ry="18"/>
<text text-anchor="middle" x="166.5" y="-230.3" font-family="Times,serif" font-size="14.00">s_{1, 2}</text>
</g>
<!-- s_{0}&#45;&gt;s_{1, 2} -->
<g id="edge3" class="edge">
<title>s_{0}&#45;&gt;s_{1, 2}</title>
<path fill="none" stroke="black" d="M211.33,-289.12C204.13,-280.42 195.04,-269.45 186.93,-259.66"/>
<polygon fill="black" stroke="black" points="189.49,-257.26 180.41,-251.8 184.1,-261.73 189.49,-257.26"/>
</g>
<!-- s_{1, 3} -->
<g id="node5" class="node">
<title>s_{1, 3}</title>
<ellipse fill="#ffffff" stroke="black" cx="400.5" cy="-234" rx="49.5" ry="18"/>
<text text-anchor="middle" x="400.5" y="-230.3" font-family="Times,serif" font-size="14.00">s_{1, 3}</text>
</g>
<!-- s_{0}&#45;&gt;s_{1, 3} -->
<g id="edge4" class="edge">
<title>s_{0}&#45;&gt;s_{1, 3}</title>
<path fill="none" stroke="black" d="M252.77,-293.75C281.52,-282.32 326.35,-264.49 359.1,-251.47"/>
<polygon fill="black" stroke="black" points="360.42,-254.71 368.41,-247.76 357.83,-248.21 360.42,-254.71"/>
</g>
<!-- s_{2, 0} -->
<g id="node6" class="node">
<title>s_{2, 0}</title>
<ellipse fill="#ffffff" stroke="black" cx="49.5" cy="-162" rx="49.5" ry="18"/>
<text text-anchor="middle" x="49.5" y="-158.3" font-family="Times,serif" font-size="14.00">s_{2, 0}</text>
</g>
<!-- s_{1, 0}&#45;&gt;s_{2, 0} -->
<g id="edge5" class="edge">
<title>s_{1, 0}&#45;&gt;s_{2, 0}</title>
<path fill="none" stroke="black" d="M246.68,-221.99C205.99,-209.82 140.39,-190.19 96.14,-176.95"/>
<polygon fill="black" stroke="black" points="97.07,-173.58 86.49,-174.07 95.07,-180.28 97.07,-173.58"/>
</g>
<!-- s_{2, 1} -->
<g id="node7" class="node">
<title>s_{2, 1}</title>
<ellipse fill="#ffffff" stroke="black" cx="166.5" cy="-162" rx="49.5" ry="18"/>
<text text-anchor="middle" x="166.5" y="-158.3" font-family="Times,serif" font-size="14.00">s_{2, 1}</text>
</g>
<!-- s_{1, 0}&#45;&gt;s_{2, 1} -->
<g id="edge6" class="edge">
<title>s_{1, 0}&#45;&gt;s_{2, 1}</title>
<path fill="none" stroke="black" d="M258.97,-218.33C241.73,-208.01 218.47,-194.1 199.59,-182.8"/>
<polygon fill="black" stroke="black" points="201.37,-179.78 190.99,-177.65 197.78,-185.79 201.37,-179.78"/>
</g>
<!-- s_{2, 2} -->
<g id="node8" class="node">
<title>s_{2, 2}</title>
<ellipse fill="#ffffff" stroke="black" cx="283.5" cy="-162" rx="49.5" ry="18"/>
<text text-anchor="middle" x="283.5" y="-158.3" font-family="Times,serif" font-size="14.00">s_{2, 2}</text>
</g>
<!-- s_{1, 0}&#45;&gt;s_{2, 2} -->
<g id="edge7" class="edge">
<title>s_{1, 0}&#45;&gt;s_{2, 2}</title>
<path fill="none" stroke="black" d="M283.5,-215.7C283.5,-207.98 283.5,-198.71 283.5,-190.11"/>
<polygon fill="black" stroke="black" points="287,-190.1 283.5,-180.1 280,-190.1 287,-190.1"/>
</g>
<!-- s_{2, 3} -->
<g id="node9" class="node">
<title>s_{2, 3}</title>
<ellipse fill="#ffffff" stroke="black" cx="400.5" cy="-162" rx="49.5" ry="18"/>
<text text-anchor="middle" x="400.5" y="-158.3" font-family="Times,serif" font-size="14.00">s_{2, 3}</text>
</g>
<!-- s_{1, 0}&#45;&gt;s_{2, 3} -->
<g id="edge8" class="edge">
<title>s_{1, 0}&#45;&gt;s_{2, 3}</title>
<path fill="none" stroke="black" d="M308.02,-218.33C325.26,-208.01 348.52,-194.1 367.4,-182.8"/>
<polygon fill="black" stroke="black" points="369.22,-185.79 376,-177.65 365.63,-179.78 369.22,-185.79"/>
</g>
<!-- s_{1, 1}&#45;&gt;s_{2, 0} -->
<g id="edge9" class="edge">
<title>s_{1, 1}&#45;&gt;s_{2, 0}</title>
<path fill="none" stroke="black" d="M49.5,-215.7C49.5,-207.98 49.5,-198.71 49.5,-190.11"/>
<polygon fill="black" stroke="black" points="53,-190.1 49.5,-180.1 46,-190.1 53,-190.1"/>
</g>
<!-- s_{1, 1}&#45;&gt;s_{2, 1} -->
<g id="edge10" class="edge">
<title>s_{1, 1}&#45;&gt;s_{2, 1}</title>
<path fill="none" stroke="black" d="M74.03,-218.33C91.27,-208.01 114.52,-194.1 133.4,-182.8"/>
<polygon fill="black" stroke="black" points="135.22,-185.79 142,-177.65 131.63,-179.78 135.22,-185.79"/>
</g>
<!-- s_{1, 1}&#45;&gt;s_{2, 2} -->
<g id="edge11" class="edge">
<title>s_{1, 1}&#45;&gt;s_{2, 2}</title>
<path fill="none" stroke="black" d="M86.32,-221.99C127,-209.82 192.6,-190.19 236.85,-176.95"/>
<polygon fill="black" stroke="black" points="237.92,-180.28 246.5,-174.07 235.92,-173.58 237.92,-180.28"/>
</g>
<!-- s_{1, 2}&#45;&gt;s_{2, 0} -->
<g id="edge12" class="edge">
<title>s_{1, 2}&#45;&gt;s_{2, 0}</title>
<path fill="none" stroke="black" d="M141.97,-218.33C124.73,-208.01 101.47,-194.1 82.59,-182.8"/>
<polygon fill="black" stroke="black" points="84.37,-179.79 73.99,-177.65 80.77,-185.79 84.37,-179.79"/>
</g>
<!-- s_{1, 2}&#45;&gt;s_{2, 1} -->
<g id="edge13" class="edge">
<title>s_{1, 2}&#45;&gt;s_{2, 1}</title>
<path fill="none" stroke="black" d="M166.5,-215.7C166.5,-207.98 166.5,-198.71 166.5,-190.11"/>
<polygon fill="black" stroke="black" points="170,-190.1 166.5,-180.1 163,-190.1 170,-190.1"/>
</g>
<!-- s_{1, 2}&#45;&gt;s_{2, 2} -->
<g id="edge14" class="edge">
<title>s_{1, 2}&#45;&gt;s_{2, 2}</title>
<path fill="none" stroke="black" d="M191.02,-218.33C208.26,-208.01 231.52,-194.1 250.4,-182.8"/>
<polygon fill="black" stroke="black" points="252.22,-185.79 259,-177.65 248.63,-179.78 252.22,-185.79"/>
</g>
<!-- s_{1, 3}&#45;&gt;s_{2, 0} -->
<g id="edge15" class="edge">
<title>s_{1, 3}&#45;&gt;s_{2, 0}</title>
<path fill="none" stroke="black" d="M364.17,-221.75C356.72,-219.66 348.89,-217.63 341.5,-216 239.17,-193.45 210.82,-202.55 108.5,-180 104.34,-179.08 100.05,-178.04 95.75,-176.93"/>
<polygon fill="black" stroke="black" points="96.39,-173.48 85.82,-174.25 94.57,-180.23 96.39,-173.48"/>
</g>
<!-- s_{1, 3}&#45;&gt;s_{2, 1} -->
<g id="edge16" class="edge">
<title>s_{1, 3}&#45;&gt;s_{2, 1}</title>
<path fill="none" stroke="black" d="M363.68,-221.99C322.99,-209.82 257.39,-190.19 213.14,-176.95"/>
<polygon fill="black" stroke="black" points="214.08,-173.58 203.49,-174.07 212.08,-180.28 214.08,-173.58"/>
</g>
<!-- s_{1, 3}&#45;&gt;s_{2, 2} -->
<g id="edge17" class="edge">
<title>s_{1, 3}&#45;&gt;s_{2, 2}</title>
<path fill="none" stroke="black" d="M375.97,-218.33C358.73,-208.01 335.47,-194.1 316.59,-182.8"/>
<polygon fill="black" stroke="black" points="318.37,-179.78 307.99,-177.65 314.78,-185.79 318.37,-179.78"/>
</g>
<!-- s_{1, 3}&#45;&gt;s_{2, 3} -->
<g id="edge18" class="edge">
<title>s_{1, 3}&#45;&gt;s_{2, 3}</title>
<path fill="none" stroke="black" d="M400.5,-215.7C400.5,-207.98 400.5,-198.71 400.5,-190.11"/>
<polygon fill="black" stroke="black" points="404,-190.1 400.5,-180.1 397,-190.1 404,-190.1"/>
</g>
<!-- s_{3} -->
<g id="node10" class="node">
<title>s_{3}</title>
<ellipse fill="#ffffff" stroke="black" cx="224.5" cy="-90" rx="37.89" ry="18"/>
<text text-anchor="middle" x="224.5" y="-86.3" font-family="Times,serif" font-size="14.00">s_{3}</text>
</g>
<!-- s_{2, 0}&#45;&gt;s_{3} -->
<g id="edge19" class="edge">
<title>s_{2, 0}&#45;&gt;s_{3}</title>
<path fill="none" stroke="black" d="M81.6,-148.16C111.46,-136.21 155.96,-118.41 187.35,-105.86"/>
<polygon fill="black" stroke="black" points="188.66,-109.11 196.64,-102.14 186.06,-102.61 188.66,-109.11"/>
</g>
<!-- s_{2, 1}&#45;&gt;s_{3} -->
<g id="edge20" class="edge">
<title>s_{2, 1}&#45;&gt;s_{3}</title>
<path fill="none" stroke="black" d="M180.24,-144.41C187.57,-135.57 196.71,-124.53 204.78,-114.79"/>
<polygon fill="black" stroke="black" points="207.56,-116.92 211.25,-106.99 202.18,-112.45 207.56,-116.92"/>
</g>
<!-- s_{2, 2}&#45;&gt;s_{3} -->
<g id="edge21" class="edge">
<title>s_{2, 2}&#45;&gt;s_{3}</title>
<path fill="none" stroke="black" d="M269.51,-144.41C262.06,-135.57 252.76,-124.53 244.55,-114.79"/>
<polygon fill="black" stroke="black" points="247.1,-112.38 237.97,-106.99 241.75,-116.89 247.1,-112.38"/>
</g>
<!-- s_{2, 3}&#45;&gt;s_{3} -->
<g id="edge22" class="edge">
<title>s_{2, 3}&#45;&gt;s_{3}</title>
<path fill="none" stroke="black" d="M368.21,-148.16C338.18,-136.21 293.42,-118.41 261.85,-105.86"/>
<polygon fill="black" stroke="black" points="263.1,-102.59 252.51,-102.14 260.51,-109.09 263.1,-102.59"/>
</g>
<!-- s_{4} -->
<g id="node11" class="node">
<title>s_{4}</title>
<ellipse fill="#ffffff" stroke="black" cx="224.5" cy="-18" rx="37.89" ry="18"/>
<text text-anchor="middle" x="224.5" y="-14.3" font-family="Times,serif" font-size="14.00">s_{4}</text>
</g>
<!-- s_{3}&#45;&gt;s_{4} -->
<g id="edge23" class="edge">
<title>s_{3}&#45;&gt;s_{4}</title>
<path fill="none" stroke="black" d="M224.5,-71.7C224.5,-63.98 224.5,-54.71 224.5,-46.11"/>
<polygon fill="black" stroke="black" points="228,-46.1 224.5,-36.1 221,-46.1 228,-46.1"/>
</g>
<!-- s_{4}&#45;&gt;s_{4} -->
<g id="edge24" class="edge">
<title>s_{4}&#45;&gt;s_{4}</title>
<path fill="none" stroke="black" d="M251.14,-30.81C266.23,-33.31 280.19,-29.04 280.19,-18 280.19,-9.55 272.01,-5.06 261.4,-4.55"/>
<polygon fill="black" stroke="black" points="260.91,-1.07 251.14,-5.19 261.34,-8.06 260.91,-1.07"/>
</g>
</g>
</svg>
